HIERARCHY
ROOT Hips
{
	OFFSET 0.000000 0.000000 0.000000 
	CHANNELS 6 Xposition Yposition Zposition Yrotation Zrotation Xrotation 
	JOINT Lumbar
	{
		OFFSET 0.000000 0.000000 0.000000 
		CHANNELS 3 Zrotation Xrotation Yrotation
		JOINT Neck
		{
			OFFSET 0.000000 0.445665 0.000000 
			CHANNELS 3 Zrotation Xrotation Yrotation
			End Site
			{
				OFFSET 0.000000 0.227535 0.000000 
			}
		}
		JOINT RightShoulder
		{
			OFFSET 0.019635 0.377685 0.194865 
			CHANNELS 3 Zrotation Xrotation Yrotation
			JOINT RightElbow
			{
				OFFSET 0.000000 -0.243375 0.000000 
				CHANNELS 2 Zrotation Yrotation
				JOINT RightWrist
				{
					OFFSET 0.000000 -0.264825 0.000000 
					CHANNELS 2 Zrotation Xrotation
					End Site
					{
						OFFSET 0.006600 -0.176220 0.000990 
					}
				}
			}
		}
		JOINT LeftShoulder
		{
			OFFSET 0.019635 0.377685 -0.194865 
			CHANNELS 3 Zrotation Xrotation Yrotation
			JOINT LeftElbow
			{
				OFFSET 0.000000 -0.243375 0.000000 
				CHANNELS 2 Zrotation Yrotation
				JOINT LeftWrist
				{
					OFFSET 0.000000 -0.264825 0.000000 
					CHANNELS 2 Zrotation Xrotation
					End Site
					{
						OFFSET 0.006600 -0.176220 -0.000990 
					}
				}
			}
		}
	}
	JOINT RightHip
	{
		OFFSET 0.052140 -0.069960 0.075570 
		CHANNELS 3 Zrotation Xrotation Yrotation
		JOINT RightKnee
		{
			OFFSET 0.000000 -0.402270 0.000000 
			CHANNELS 1 Zrotation
			JOINT RightAnkle
			{
				OFFSET 0.000000 -0.404085 0.000000 
				CHANNELS 3 Zrotation Xrotation Yrotation
				End Site
				{
					OFFSET 0.204105 -0.089430 0.008415 
				}
			}
		}
	}
	JOINT LeftHip
	{
		OFFSET 0.052140 -0.069960 -0.075570 
		CHANNELS 3 Zrotation Xrotation Yrotation
		JOINT LeftKnee
		{
			OFFSET 0.000000 -0.402270 0.000000 
			CHANNELS 1 Zrotation
			JOINT LeftAnkle
			{
				OFFSET 0.000000 -0.404085 0.000000 
				CHANNELS 3 Zrotation Xrotation Yrotation
				End Site
				{
					OFFSET 0.204105 -0.089430 -0.008415 
				}
			}
		}
	}
}
MOTION
Frames: 27
Frame Time: 0.02
0.00112 0.0011 0.00166 120.60814 -36.23208 -14.07686 41.97357 2.60406 -0.82669 -15.81452 1.20047 -1.08967 -7.57391 -6.93682 -14.76737 29.88636 89.09629 5.45597 0.53377 -37.68504 1.08201 31.20183 33.29996 -153.94145 32.84778 -9.73854 36.66029 -3.24139 -3.27372 -20.44758 -6.67968 -2.81109 -3.5995 37.6707 2.07943 3.95156 -24.80578 -7.09007 3.47779 3.93548
0.00046 0.00082 0.00028 121.82451 -36.31217 -13.79259 42.024 2.41283 -1.74232 -15.60902 0.91206 -1.09238 -8.46079 -7.06282 -14.43068 29.73504 89.51147 5.56068 0.65197 -36.47029 2.41694 26.39099 33.15228 -149.37471 31.10106 -9.05052 36.2821 -3.37755 -3.86985 -20.47481 -6.63699 -2.81794 -3.60079 37.53174 2.07779 4.05694 -24.78895 -7.04851 3.398 3.89524
-0.00021 0.00053 -0.00111 123.03851 -36.39209 -13.50885 42.07453 2.22192 -2.65558 -15.40418 0.62423 -1.09508 -9.34679 -7.18824 -14.09492 29.58426 89.9253 5.66498 0.76987 -35.25808 3.74911 21.59505 33.00767 -144.82043 29.35874 -8.36461 35.90462 -3.51302 -4.46375 -20.50195 -6.59446 -2.8249 -3.60215 37.39302 2.07648 4.16271 -24.77212 -7.00706 3.31829 3.85503
-0.00088 0.00025 -0.0025 124.25139 -36.47195 -13.2254 42.12484 2.03123 -3.56847 -15.19932 0.33666 -1.09778 -10.23124 -7.31382 -13.75924 29.43341 90.33914 5.76932 0.88771 -34.0469 5.08016 16.799 32.86098 -140.26742 27.61722 -7.67871 35.52753 -3.64872 -5.05797 -20.5291 -6.55191 -2.83175 -3.60345 37.25447 2.0749 4.26787 -24.75532 -6.96563 3.23871 3.8149
-0.00154 -4e-05 -0.00388 125.46605 -36.55192 -12.94154 42.17496 1.84034 -4.48352 -14.99382 0.04863 -1.10048 -11.11588 -7.44004 -13.42269 29.28202 90.7545 5.87415 1.00586 -32.83358 6.41342 11.98814 32.70991 -135.70276 25.87176 -6.99072 35.14988 -3.78518 -5.65458 -20.55632 -6.5092 -2.83843 -3.60466 37.11575 2.07288 4.37237 -24.73855 -6.9241 3.15914 3.77476
-0.0022 -0.00032 -0.00527 126.67852 -36.63174 -12.65808 42.22639 1.6494 -5.39294 -14.79037 -0.23878 -1.10318 -12.00466 -7.56379 -13.08863 29.13251 91.16517 5.97736 1.12321 -31.62375 7.74319 7.22389 32.57873 -131.17068 24.1362 -6.30922 34.77276 -3.91857 -6.24276 -20.58329 -6.46704 -2.84594 -3.60631 36.97699 2.07306 4.48081 -24.7216 -6.88283 3.07914 3.73441
-0.00288 -0.00061 -0.00665 127.89425 -36.71182 -12.37413 42.27508 1.45874 -6.31275 -14.58298 -0.52707 -1.10589 -12.88413 -7.69237 -12.74988 28.97935 91.58444 6.08357 1.24199 -30.40843 9.07859 2.37111 32.40855 -126.57775 22.3825 -5.61543 34.39506 -4.05799 -6.8472 -20.61076 -6.42383 -2.85181 -3.6071 36.83854 2.06881 4.5812 -24.70502 -6.84109 3.00007 3.69454
-0.00354 -0.00089 -0.00804 129.10664 -36.79157 -12.09065 42.32638 1.2679 -7.22283 -14.3793 -0.81465 -1.10859 -13.77218 -7.81648 -12.41556 28.82961 91.99646 6.18728 1.35952 -29.19782 10.40864 -2.40006 32.27269 -122.04143 20.64575 -4.93293 34.0178 -4.19188 -7.43675 -20.63773 -6.38158 -2.85916 -3.60866 36.69968 2.06864 4.68903 -24.68811 -6.79978 2.92015 3.65423
-0.00419 -0.00117 -0.00946 130.31701 -36.87132 -11.80751 42.38059 1.0764 -8.12209 -14.1798 -1.10113 -1.11127 -14.67142 -7.93522 -12.08607 28.68378 92.39709 6.28688 1.47534 -27.99363 11.7336 -7.07333 32.18572 -117.57015 18.92793 -4.26413 33.64122 -4.31891 -8.00784 -20.66426 -6.34052 -2.86847 -3.61126 36.56073 2.07354 4.80607 -24.67073 -6.75896 2.83908 3.6133
-0.00492 -0.00148 -0.01073 131.54526 -36.95228 -11.52168 42.41724 0.88734 -9.08688 -13.95516 -1.39326 -1.11402 -15.50845 -8.08515 -11.72701 28.51463 92.85569 6.40699 1.60045 -26.75444 13.09226 -12.31563 31.83839 -112.71201 17.09575 -3.51617 33.26111 -4.48511 -8.68437 -20.69383 -6.29267 -2.86695 -3.60816 36.42353 2.04953 4.87047 -24.65584 -6.7152 2.76429 3.57568
-0.00547 -0.00172 -0.01231 132.73157 -37.02991 -11.24204 42.49141 0.69405 -9.91121 -13.78424 -1.67385 -1.11665 -16.4751 -8.16906 -11.43154 28.39525 93.19677 6.48584 1.7063 -25.58807 14.37676 -16.35336 32.02672 -108.67866 15.50857 -2.93549 32.88828 -4.56885 -9.13894 -20.71667 -6.25909 -2.88795 -3.61691 36.28186 2.0863 5.0456 -24.63587 -6.67774 2.67653 3.53127
-0.00549 -0.00178 -0.01471 133.83594 -37.10442 -10.97539 42.66559 0.48142 -10.36478 -13.75682 -1.91945 -1.11894 -17.81355 -8.07112 -11.30534 28.40836 93.18018 6.43595 1.75706 -24.6332 15.4818 -17.08709 33.81238 -106.86002 14.5701 -2.8162 32.5368 -4.42239 -8.97402 -20.72353 -6.26549 -2.97429 -3.66005 36.134 2.29346 5.53008 -24.60052 -6.65693 2.55071 3.46653
-0.00532 -0.00178 -0.01743 134.89138 -37.17432 -10.71589 42.8779 0.26599 -10.67464 -13.78414 -2.15402 -1.12113 -19.27798 -7.90659 -11.24614 28.47167 93.05712 6.34901 1.78965 -23.75075 16.50794 -16.61102 36.11233 -105.87946 13.88286 -2.86453 32.19237 -4.1937 -8.58799 -20.72319 -6.28608 -3.08256 -3.71474 35.98047 2.56103 6.12429 -24.56053 -6.64255 2.41247 3.39533
-0.00525 -0.00182 -0.02004 135.94844 -37.24256 -10.45551 43.07477 0.05686 -11.04059 -13.78888 -2.39585 -1.12337 -20.6758 -7.77348 -11.15691 28.51535 92.99941 6.28727 1.831 -22.82559 17.55454 -16.68767 38.09375 -104.54592 13.09489 -2.83451 31.84384 -4.00538 -8.31011 -20.72448 -6.29965 -3.1785 -3.76294 35.82568 2.79857 6.6653 -24.52334 -6.62567 2.28137 3.32813
-0.00512 -0.00182 -0.02248 137.09522 -37.32718 -10.18438 43.26406 -0.17356 -11.44494 -13.78371 -2.62839 -1.12558 -22.11835 -7.637 -11.05708 28.54787 92.84933 6.18402 1.86699 -21.93578 18.66602 -16.74956 40.43422 -103.09257 12.24706 -2.81367 31.49914 -3.80483 -8.00001 -20.73261 -6.31568 -3.28455 -3.81646 35.68735 3.04697 7.22248 -24.48238 -6.60711 2.14341 3.2562
-0.00506 -0.00188 -0.02536 138.04005 -37.37592 -9.93826 43.47777 -0.36023 -11.73556 -13.81255 -2.8774 -1.12782 -23.49135 -7.48969 -11.00645 28.61283 92.89214 6.16613 1.91384 -20.99722 19.6236 -16.5554 42.14875 -102.09213 11.58801 -2.81384 31.14812 -3.6095 -7.70386 -20.72488 -6.32994 -3.37466 -3.86159 35.51305 3.28724 7.76961 -24.44921 -6.59344 2.01745 3.19287
-0.00523 -0.00208 -0.02927 138.46925 -37.33351 -9.75176 43.75292 -0.42563 -11.74478 -13.91739 -3.17657 -1.13016 -24.69383 -7.34794 -10.97347 28.77864 93.25479 6.32141 1.95834 -19.8405 20.17572 -15.95431 42.0088 -102.10017 11.35117 -2.82816 30.77909 -3.45563 -7.50917 -20.67455 -6.33556 -3.41585 -3.88079 35.24658 3.4889 8.28168 -24.43232 -6.59301 1.92196 3.15268
-0.00547 -0.00235 -0.0336 138.69145 -37.25455 -9.59182 44.05053 -0.44667 -11.64483 -14.05473 -3.49204 -1.13252 -25.81175 -7.19488 -11.00285 28.97128 93.84654 6.57303 2.01931 -18.64475 20.57536 -15.1367 41.22266 -102.54562 11.30399 -2.85902 30.40408 -3.30866 -7.3356 -20.60875 -6.33888 -3.44004 -3.89105 34.94493 3.68072 8.77581 -24.42629 -6.5971 1.84005 3.12182
-0.00568 -0.00259 -0.03779 138.98858 -37.18708 -9.42446 44.33587 -0.48811 -11.59682 -14.18096 -3.79914 -1.13487 -26.9345 -7.03338 -11.07527 29.13576 94.50698 6.8329 2.09941 -17.50972 21.04508 -14.41623 40.73025 -102.80997 11.19275 -2.88327 30.02995 -3.15391 -7.14532 -20.55023 -6.34356 -3.47182 -3.90538 34.65323 3.87771 9.26576 -24.41731 -6.59818 1.75562 3.08815
-0.00589 -0.00278 -0.0418 139.36425 -37.13842 -9.23683 44.63193 -0.5294 -11.53477 -14.29635 -4.11115 -1.1372 -28.2051 -6.9234 -10.86439 29.36805 94.48882 6.88921 2.07465 -16.19474 21.51 -13.65976 40.24881 -103.01304 10.99102 -2.90672 29.66033 -3.01557 -6.9731 -20.48986 -6.34777 -3.50535 -3.92029 34.37907 4.07315 9.81307 -24.39288 -6.60328 1.65528 3.04817
-0.0061 -0.00312 -0.04627 139.52852 -37.04528 -9.09872 44.90967 -0.55948 -11.4769 -14.43792 -4.41539 -1.13958 -29.14401 -6.70865 -11.23781 29.4665 95.87129 7.37104 2.26223 -15.24559 21.94813 -12.94141 39.59279 -103.45661 11.02684 -2.93713 29.28421 -2.84617 -6.77647 -20.43046 -6.35177 -3.53041 -3.93145 34.06981 4.2696 10.23339 -24.41196 -6.60132 1.59153 3.02369
-0.00635 -0.0038 -0.05208 139.15461 -36.81 -9.08161 45.1366 -0.5774 -11.46682 -14.67121 -4.70799 -1.14204 -29.20299 -6.1697 -13.38118 29.17375 101.66626 9.19529 3.12147 -15.30416 22.36338 -12.3979 38.53638 -104.26794 11.60205 -2.94933 28.85384 -2.58596 -6.46289 -20.37147 -6.35977 -3.54033 -3.93681 33.59177 4.46284 10.32141 -24.47737 -6.57613 1.62504 3.03922
-0.00657 -0.00463 -0.05833 138.57699 -36.53666 -9.11512 45.34206 -0.58393 -11.46379 -14.92332 -4.98994 -1.14461 -28.92685 -5.53262 -16.07988 28.74769 108.75949 11.41145 4.17847 -15.73299 22.75457 -11.90344 37.33728 -105.32669 12.41679 -2.97178 28.42414 -2.29507 -6.13343 -20.31506 -6.36689 -3.54149 -3.93825 33.09649 4.65855 10.27856 -24.60166 -6.54437 1.69503 3.07015
-0.00675 -0.00541 -0.06428 138.09531 -36.29907 -9.13142 45.55511 -0.59067 -11.45182 -15.14984 -5.26746 -1.14706 -28.79443 -4.96605 -18.40897 28.39259 114.85433 13.31995 5.08483 -16.00127 23.1484 -11.38148 36.25222 -106.40557 13.17277 -3.01259 28.01886 -2.02113 -5.84142 -20.26161 -6.37163 -3.54376 -3.93982 32.65958 4.85853 10.28655 -24.74291 -6.51698 1.74871 3.09438
-0.0072 -0.00611 -0.07064 137.58931 -35.98164 -9.12405 45.7826 -0.61746 -11.45959 -15.45361 -5.58364 -1.14953 -28.69841 -4.29146 -21.22754 27.99566 122.64733 15.76855 6.24322 -16.24031 23.57265 -10.87231 34.9412 -106.98421 13.74392 -2.96338 27.50899 -1.73563 -5.42227 -20.19061 -6.38774 -3.55731 -3.94788 32.0006 5.03604 10.33254 -24.69107 -6.48293 1.80181 3.1177
-0.00705 -0.00701 -0.07624 137.0919 -35.82275 -9.17784 45.96898 -0.59956 -11.43008 -15.59535 -5.81788 -1.15233 -28.44426 -3.81643 -23.1673 27.65257 127.25119 17.19681 6.92978 -16.62284 23.92886 -10.35219 34.07037 -108.60295 14.7295 -3.09575 27.21722 -1.46567 -5.26405 -20.15643 -6.38034 -3.54582 -3.94181 31.80989 5.26029 10.26586 -25.06641 -6.46239 1.86449 3.14643
-0.00528 -0.00844 -0.07963 136.63782 -36.10439 -9.38589 46.09582 -0.46813 -11.28932 -15.32909 -5.81714 -1.15303 -27.86847 -3.93692 -22.46088 27.5016 122.36636 15.60165 6.21097 -17.36118 24.11119 -9.78318 34.49408 -113.51654 17.02008 -3.79883 27.52766 -1.25712 -5.82879 -20.22795 -6.30536 -3.46474 -3.89601 32.83565 5.61873 9.94584 -26.50662 -6.46943 1.9456 3.18635
